{"title":"The Best Of Me 2014 CAM XVID AC3 ACAB","uid":11601647,"size":1453415246,"categoryP":"video","categoryS":"movies","magnet":"?xt=urn:btih:59090e49d9d658a988e3e4ab4db5f0637fd4b081&amp;dn=The+Best+Of+Me+2014+CAM+XVID+AC3+ACAB&amp;tr=udp%3A%2F%2Ftracker.openbittorrent.com%3A80&amp;tr=udp%3A%2F%2Fopen.demonii.com%3A1337&amp;tr=udp%3A%2F%2Ftracker.coppersurfer.tk%3A6969&amp;tr=udp%3A%2F%2Fexodus.desync.com%3A6969","seeders":13,"leechers":0,"uploader":"xxxlavalxxx","files":-1,"time":1417359610,"description":"[img]http://extraimago.com/images/2014/11/30/The-Best-of-Me-654x1024.jpg[/img]\n &lt;a href=&quot;\nhttp://www.imdb.com/title/tt1972779/&quot; rel=&quot;nofollow&quot; target=&quot;_NEW&quot;&gt;\nhttp://www.imdb.com/title/tt1972779/&lt;/a&gt;\n\n\nAmanda and Dawson are soul mates who met as teens and were from different backgrounds. But circumstances would force them to part ways. 20 years they are brought back together by the passing of a mutual friend. So they go back home to fulfill his final wishes they run into each other. While Amanda is married, albeit unhappily, she still has feelings for Dawson but she can't forgive him for pushing her away.\n\nDirector: Michael Hoffman\nWriters: J. Mills Goodloe (screenplay), Will Fetters (screenplay)\nStars: James Marsden, Michelle Monaghan, Luke Bracey\nGenres: Drama, Romance\nCountry: USA\nLanguage: English\n\n\nFormat: AVI\nFormat/Info: Audio Video Interleave\nFile size: 1.18 GiB\nDuration: 1h 36mn\nOverall bit rate: 1 762 Kbps\nWriting library: VirtualDub build 30091/release\n\nVideo\nID: 0\nFormat: MPEG-4 Visual\nFormat profile: Advanced Simple@L5\nFormat settings, BVOP: 2\nFormat settings, QPel: No\nFormat settings, GMC: No warppoints\nFormat settings, Matrix: Default (H.263)\nMuxing mode: Packed bitstream\nCodec ID: XVID\nCodec ID/Hint: XviD\nDuration: 1h 36mn\nBit rate: 1 497 Kbps\nWidth: 720 pixels\nHeight: 400 pixels\nDisplay aspect ratio: 16:9\nFrame rate: 23.976 fps\nColor space: YUV\nChroma subsampling: 4:2:0\nBit depth: 8 bits\nScan type: Progressive\nCompression mode: Lossy\nBits/(Pixel*Frame): 0.217\nStream size: 1.01 GiB (85%)\nWriting library: XviD 66\n\nAudio\nID: 1\nFormat: AC-3\nFormat/Info: Audio Coding 3\nMode extension: CM (complete main)\nFormat settings, Endianness: Big\nCodec ID: 2000\nDuration: 1h 36mn\nBit rate mode: Constant\nBit rate: 256 Kbps\nChannel(s): 2 channels\nChannel positions: Front: L R\nSampling rate: 48.0 KHz\nBit depth: 16 bits\nCompression mode: Lossy\nStream size: 176 MiB (15%)\nAlignment: Aligned on interleaves\nInterleave, duration: 42 ms (1.00 video frame)\nInterleave, preload duration: 512 ms \n\n\nscreens\n &lt;a href=&quot;\nhttp://extraimago.com/images/2014/11/30/image.png&quot; rel=&quot;nofollow&quot; target=&quot;_NEW&quot;&gt;\nhttp://extraimago.com/images/2014/11/30/image.png&lt;/a&gt; &lt;a href=&quot;\nhttp://extraimago.com/images/2014/11/30/image1.png&quot; rel=&quot;nofollow&quot; target=&quot;_NEW&quot;&gt;\nhttp://extraimago.com/images/2014/11/30/image1.png&lt;/a&gt; &lt;a href=&quot;\nhttp://extraimago.com/images/2014/11/30/image2.png&quot; rel=&quot;nofollow&quot; target=&quot;_NEW&quot;&gt;\nhttp://extraimago.com/images/2014/11/30/image2.png&lt;/a&gt; &lt;a href=&quot;\nhttp://extraimago.com/images/2014/11/30/image3.png&quot; rel=&quot;nofollow&quot; target=&quot;_NEW&quot;&gt;\nhttp://extraimago.com/images/2014/11/30/image3.png&lt;/a&gt; &lt;a href=&quot;\nhttp://extraimago.com/images/2014/11/30/image4.png&quot; rel=&quot;nofollow&quot; target=&quot;_NEW&quot;&gt;\nhttp://extraimago.com/images/2014/11/30/image4.png&lt;/a&gt;","torrent":{"xt":"urn:btih:59090e49d9d658a988e3e4ab4db5f0637fd4b081","amp;dn":"The+Best+Of+Me+2014+CAM+XVID+AC3+ACAB","amp;tr":["udp%3A%2F%2Ftracker.openbittorrent.com%3A80","udp%3A%2F%2Fopen.demonii.com%3A1337","udp%3A%2F%2Ftracker.coppersurfer.tk%3A6969","udp%3A%2F%2Fexodus.desync.com%3A6969"],"infoHash":"59090e49d9d658a988e3e4ab4db5f0637fd4b081","infoHashBuffer":{"type":"Buffer","data":[89,9,14,73,217,214,88,169,136,227,228,171,77,181,240,99,127,212,176,129]},"announce":[],"urlList":[]}}